<svg t="1758476243446" class="icon" viewBox="0 0 1024 1024" version="1.1" xmlns="http://www.w3.org/2000/svg" p-id="1548" width="200" height="200"><path d="M511.999998 10.183372c277.140604 0 501.816627 224.675601 501.816627 501.816627 0 277.140604-224.675601 501.816627-501.816627 501.816627-277.140604 0-501.816627-224.675601-501.816627-501.816627 0-277.140604 224.675601-501.816627 501.816627-501.816627zm156.222997 320.022572c0 7.617163 2.922626 15.26488 8.716985 21.059205l0 0.010183c43.829356 43.869814 68.310159 102.902899 68.310159 164.929867 0 128.819535-104.430605 233.260255-233.260255 233.260255-128.819535 0-233.25014-104.450834-233.25014-233.260255 0-62.026968 24.480803-121.049517 68.300044-164.929867l0.010183-0.010183c5.804524-5.794325 8.706786-13.431885 8.706786-21.059205 0-7.627362-2.912444-15.254681-8.706786-21.069404-5.794325-5.784169-13.442042-8.706786-21.059205-8.706786-7.637518 0-15.285235 2.912444-21.089759 8.706786-55.092236 55.12258-85.764357 129.125076-85.764357 207.068843 0 161.732431 131.120997 292.843314 292.853429 292.843314 161.742546 0 292.853429-131.100768 292.853429-292.843314 0-77.943345-30.672331-151.946263-85.764357-207.068843-5.804524-5.794325-13.442042-8.706786-21.07956-8.706786-7.627362 0-15.26488 2.922626-21.059205 8.706786-5.804524 5.804524-8.716985 13.442042-8.716985 21.069404zm-177.312924-106.528093c-5.376808 5.387007-8.706786 12.841243-8.706786 21.069404l0 271.45796c0 8.228161 3.340147 15.692595 8.727141 21.07956l0 0.010183c5.366652 5.376808 12.831044 8.716985 21.059205 8.716985 8.23836 0 15.702752-3.340147 21.069404-8.716985l0-0.010183c5.387007-5.387007 8.727141-12.851399 8.727141-21.07956l0-271.45796c0-8.228161-3.340147-15.692595-8.716985-21.069404-5.387007-5.376808-12.841243-8.716985-21.07956-8.716985-8.228161 0-15.692595 3.340147-21.069404 8.716985l-0.010183 0z" fill="currentColor" p-id="1549"></path></svg>